<svg width="29" height="22" viewBox="0 0 29 22" fill="none" xmlns="http://www.w3.org/2000/svg">
<path d="M28.1398 9.06977C28.1398 7.99714 27.2683 7.12563 26.1956 7.12563H24.5113C24.4694 7.03345 24.4275 6.94127 24.3688 6.85747L20.5308 0.882587C20.2543 0.455211 19.8269 0.153534 19.3325 0.0445951C18.8297 -0.0643439 18.3269 0.0278358 17.8911 0.304373C17.0029 0.874208 16.7515 2.05578 17.3213 2.94405L20.0029 7.11725H8.14529L10.8269 2.94405C11.028 2.63399 11.1285 2.28204 11.1285 1.91332C11.1285 1.25968 10.8017 0.65633 10.2486 0.304373C9.82127 0.0278358 9.3101 -0.0643439 8.8073 0.0445951C8.31288 0.153534 7.88551 0.446831 7.60897 0.882587L3.77097 6.85747C3.71231 6.94127 3.67041 7.03345 3.62851 7.12563H1.94414C0.871512 7.12563 0 7.99714 0 9.06977V9.19547C0 10.2681 0.871512 11.1396 1.94414 11.1396H2.1285L5.32125 21.5559C5.40505 21.824 5.64807 22 5.92461 22H22.1984C22.475 22 22.718 21.8156 22.8018 21.5559L25.9945 11.1396H26.1789C27.2515 11.1396 28.123 10.2681 28.123 9.19547V9.06977H28.1398ZM18.3688 2.27366C18.1761 1.97198 18.2599 1.56974 18.5615 1.36862C18.7124 1.27644 18.88 1.24292 19.0559 1.27644C19.2235 1.30996 19.3744 1.41052 19.4666 1.56136L23.0364 7.11725H21.4861L18.3688 2.27366ZM8.67322 1.56136C8.7654 1.41052 8.91624 1.30996 9.08384 1.27644C9.25144 1.24292 9.42741 1.26806 9.57825 1.36862C9.76261 1.48594 9.87993 1.69544 9.87993 1.9217C9.87993 2.0474 9.84641 2.16472 9.77937 2.27366L6.66204 7.12563H5.11175L8.67322 1.56136ZM21.7459 20.743H6.39388L3.44415 11.1396H24.6873L21.7459 20.743ZM26.8828 9.19547C26.8828 9.57257 26.5727 9.88263 26.1956 9.88263H25.5504H25.542H2.60616H2.59778H1.95252C1.57543 9.88263 1.26537 9.57257 1.26537 9.19547V9.06977C1.26537 8.69268 1.57543 8.38262 1.95252 8.38262H4.09778H4.10616H6.98886H21.1342H24.0169C24.0169 8.38262 24.0169 8.38262 24.0252 8.38262H26.1789C26.556 8.38262 26.866 8.69268 26.866 9.06977V9.19547H26.8828Z" fill="white"/>
<path d="M10.1229 18.2793C10.4665 18.2793 10.7514 17.9944 10.7514 17.6508V14.2318C10.7514 13.8882 10.4665 13.6033 10.1229 13.6033C9.7793 13.6033 9.49438 13.8882 9.49438 14.2318V17.6508C9.49438 18.0028 9.7793 18.2793 10.1229 18.2793Z" fill="white"/>
<path d="M14.0699 18.2793C14.4135 18.2793 14.6984 17.9944 14.6984 17.6508V14.2318C14.6984 13.8882 14.4135 13.6033 14.0699 13.6033C13.7263 13.6033 13.4414 13.8882 13.4414 14.2318V17.6508C13.4414 18.0028 13.7263 18.2793 14.0699 18.2793Z" fill="white"/>
<path d="M18.0168 18.2793C18.3604 18.2793 18.6453 17.9944 18.6453 17.6508V14.2318C18.6453 13.8882 18.3604 13.6033 18.0168 13.6033C17.6732 13.6033 17.3883 13.8882 17.3883 14.2318V17.6508C17.3883 18.0028 17.6648 18.2793 18.0168 18.2793Z" fill="white"/>
</svg>
