<svg width="20" height="20" viewBox="0 0 20 20" fill="none" xmlns="http://www.w3.org/2000/svg">
<path d="M1.68074 4.34999C1.84688 4.51613 2.05732 4.59366 2.26776 4.59366C2.47819 4.59366 2.68863 4.51613 2.85477 4.34999L5.78984 1.41492C6.11103 1.09373 6.11103 0.562093 5.78984 0.240897C5.46864 -0.080299 4.93701 -0.080299 4.61581 0.240897L2.26776 2.58895L1.41492 1.73612C1.09373 1.41492 0.562093 1.41492 0.240897 1.73612C-0.080299 2.05732 -0.080299 2.58895 0.240897 2.91015L1.68074 4.34999Z" fill="white"/>
<path d="M7.90539 3.12059H18.9479C19.402 3.12059 19.7786 2.74401 19.7786 2.28991C19.7786 1.8358 19.402 1.45923 18.9479 1.45923H7.90539C7.45128 1.45923 7.07471 1.8358 7.07471 2.28991C7.07471 2.74401 7.45128 3.12059 7.90539 3.12059Z" fill="white"/>
<path d="M1.68074 12.0587C1.84688 12.2248 2.05732 12.3023 2.26776 12.3023C2.47819 12.3023 2.68863 12.2248 2.85477 12.0587L5.78984 9.1236C6.11103 8.80241 6.11103 8.27077 5.78984 7.94958C5.46864 7.62838 4.93701 7.62838 4.61581 7.94958L2.26776 10.2866L1.41492 9.43372C1.09373 9.11253 0.562093 9.11253 0.240897 9.43372C-0.080299 9.75492 -0.080299 10.2866 0.240897 10.6078L1.68074 12.0587Z" fill="white"/>
<path d="M7.90539 10.8293H18.9479C19.402 10.8293 19.7786 10.4527 19.7786 9.99859C19.7786 9.54448 19.402 9.16791 18.9479 9.16791H7.90539C7.45128 9.16791 7.07471 9.54448 7.07471 9.99859C7.07471 10.4527 7.45128 10.8293 7.90539 10.8293Z" fill="white"/>
<path d="M1.68074 19.7564C1.84688 19.9225 2.05732 20 2.26776 20C2.47819 20 2.68863 19.9225 2.85477 19.7564L5.78984 16.8213C6.11103 16.5001 6.11103 15.9685 5.78984 15.6473C5.46864 15.3261 4.93701 15.3261 4.61581 15.6473L2.26776 17.9953L1.41492 17.1425C1.09373 16.8213 0.562093 16.8213 0.240897 17.1425C-0.080299 17.4637 -0.080299 17.9953 0.240897 18.3165L1.68074 19.7564Z" fill="white"/>
<path d="M7.90539 18.538H18.9479C19.402 18.538 19.7786 18.1614 19.7786 17.7073C19.7786 17.2532 19.402 16.8766 18.9479 16.8766H7.90539C7.45128 16.8766 7.07471 17.2532 7.07471 17.7073C7.07471 18.1614 7.45128 18.538 7.90539 18.538Z" fill="white"/>
</svg>
