<svg width="23" height="22" viewBox="0 0 23 22" fill="none" xmlns="http://www.w3.org/2000/svg">
<path fill-rule="evenodd" clip-rule="evenodd" d="M13.7903 15.8444C12.3628 16.8615 10.6162 17.4598 8.72991 17.4598C3.90851 17.4598 0 13.5513 0 8.72991C0 3.90851 3.90851 0 8.72991 0C13.5513 0 17.4598 3.90851 17.4598 8.72991C17.4598 10.6162 16.8615 12.3628 15.8444 13.7903L21.5802 19.5262C22.1453 20.0912 22.1406 20.9954 21.58 21.556L21.556 21.58C20.9968 22.1392 20.0866 22.1407 19.5262 21.5802L13.7903 15.8444ZM8.72991 15.4057C12.4169 15.4057 15.4057 12.4169 15.4057 8.72991C15.4057 5.04296 12.4169 2.0541 8.72991 2.0541C5.04296 2.0541 2.0541 5.04296 2.0541 8.72991C2.0541 12.4169 5.04296 15.4057 8.72991 15.4057Z" fill="white"/>
</svg>
