<svg width="26" height="18" viewBox="0 0 26 18" fill="none" xmlns="http://www.w3.org/2000/svg">
<path d="M0 3.9375H10.9688L11.8125 5.625H0.84375L0 3.9375ZM1.125 7.3125H12.0938L12.9375 9H1.96875L1.125 7.3125ZM19.4062 16.3125C20.34 16.3125 21.0938 15.5588 21.0938 14.625C21.0938 13.6912 20.34 12.9375 19.4062 12.9375C18.4725 12.9375 17.7188 13.6912 17.7188 14.625C17.7188 15.5588 18.4725 16.3125 19.4062 16.3125ZM21.0938 6.1875H18.2812V9H23.2987L21.0938 6.1875ZM8.15625 16.3125C9.09 16.3125 9.84375 15.5588 9.84375 14.625C9.84375 13.6912 9.09 12.9375 8.15625 12.9375C7.2225 12.9375 6.46875 13.6912 6.46875 14.625C6.46875 15.5588 7.2225 16.3125 8.15625 16.3125ZM21.6562 4.5L25.0312 9V14.625H22.7812C22.7812 16.4925 21.2738 18 19.4062 18C17.5387 18 16.0312 16.4925 16.0312 14.625H11.5312C11.5312 16.4925 10.0125 18 8.15625 18C6.28875 18 4.78125 16.4925 4.78125 14.625H2.53125V10.6875H4.78125V12.375H5.63625C6.255 11.6888 7.155 11.25 8.15625 11.25C9.1575 11.25 10.0575 11.6888 10.6762 12.375H16.0312V2.25H2.53125C2.53125 1.00125 3.5325 0 4.78125 0H18.2812V4.5H21.6562Z" fill="white"/>
</svg>
