<svg width="20" height="22" viewBox="0 0 20 22" fill="none" xmlns="http://www.w3.org/2000/svg">
<path d="M2.38123 7.16475C2.38123 11.1054 5.60536 14.3295 9.54598 14.3295C13.4866 14.3295 16.7107 11.1054 16.7107 7.16475C16.7107 3.22414 13.4866 0 9.54598 0C5.60536 0 2.38123 3.22414 2.38123 7.16475ZM15.0249 7.16475C15.0249 10.1782 12.5594 12.6437 9.54598 12.6437C6.53257 12.6437 4.06705 10.1782 4.06705 7.16475C4.06705 4.15134 6.53257 1.68582 9.54598 1.68582C12.5594 1.68582 15.0249 4.15134 15.0249 7.16475Z" fill="white"/>
<path d="M1.20115 22C3.43487 19.7663 6.38506 18.5441 9.54598 18.5441C12.7069 18.5441 15.6571 19.7663 17.8908 22L19.092 20.7989C16.5421 18.2701 13.1494 16.8582 9.54598 16.8582C5.94253 16.8582 2.54981 18.2701 0 20.7989L1.20115 22Z" fill="white"/>
</svg>
