<svg width="83" height="30" viewBox="0 0 83 30" fill="none" xmlns="http://www.w3.org/2000/svg">
<path d="M60.6384 11.465H57.7577V21.288C57.7575 21.3775 57.7217 21.4632 57.6581 21.5265C57.5945 21.5898 57.5083 21.6255 57.4183 21.6256H55.1967C55.1067 21.6255 55.0205 21.5898 54.9569 21.5265C54.8933 21.4632 54.8575 21.3775 54.8573 21.288V11.465H51.9597C51.916 11.4668 51.8725 11.4599 51.8316 11.4446C51.7907 11.4293 51.7533 11.406 51.7217 11.3761C51.69 11.3462 51.6647 11.3102 51.6473 11.2704C51.6299 11.2305 51.6207 11.1876 51.6202 11.1442V9.40674C51.6207 9.36324 51.6299 9.32038 51.6473 9.28053C51.6647 9.24067 51.69 9.20474 51.7217 9.17481C51.7533 9.14488 51.7907 9.1216 51.8316 9.10631C51.8725 9.09103 51.916 9.08403 51.9597 9.08581H60.6377C60.7277 9.08167 60.8157 9.11303 60.8824 9.17317C60.9492 9.23331 60.9893 9.31724 60.994 9.40674V11.1449C60.9892 11.2341 60.949 11.3177 60.8824 11.3777C60.8159 11.4377 60.7282 11.469 60.6384 11.465Z" fill="#F71963"/>
<path d="M69.8862 21.555C69.2926 21.6391 68.2941 21.7743 66.4625 21.7743C64.2747 21.7743 62.3418 21.2173 62.3418 18.1467V12.5419C62.3418 9.47129 64.2923 8.93115 66.4794 8.93115C68.3103 8.93115 69.2926 9.06637 69.8862 9.15044C70.1235 9.18408 70.2256 9.2688 70.2256 9.48808V11.0595C70.2254 11.149 70.1896 11.2348 70.126 11.2981C70.0624 11.3614 69.9762 11.397 69.8862 11.3972H66.3104C65.5133 11.3972 65.2253 11.6669 65.2253 12.5447V14.0804H69.751C69.8409 14.0807 69.9272 14.1163 69.9908 14.1796C70.0544 14.2429 70.0902 14.3287 70.0904 14.4182V16.0211C70.0902 16.1106 70.0544 16.1964 69.9908 16.2597C69.9272 16.3229 69.8409 16.3586 69.751 16.3587H65.2253V18.1474C65.2253 19.0244 65.5133 19.2949 66.3104 19.2949H69.8862C69.9762 19.2951 70.0624 19.3307 70.126 19.394C70.1896 19.4573 70.2254 19.5431 70.2256 19.6326V21.2019C70.2256 21.4198 70.1235 21.5214 69.8862 21.555Z" fill="#F71963"/>
<path d="M82.6814 21.6219H79.985C79.765 21.6219 79.6628 21.5519 79.5443 21.369L77.2064 17.6762L75.0885 21.2877C74.9693 21.4902 74.8514 21.6254 74.6657 21.6254H72.1564C71.9864 21.6254 71.9021 21.5238 71.9021 21.4061C71.9057 21.3648 71.9171 21.3246 71.9357 21.2877L75.6093 15.1927L71.8978 9.40509C71.8793 9.37423 71.8678 9.33944 71.8643 9.30351C71.87 9.24151 71.9 9.18423 71.9471 9.14344C71.9943 9.10259 72.0557 9.08144 72.1185 9.08423H74.8485C75.035 9.08423 75.1707 9.25309 75.2707 9.40509L77.4407 12.8134L79.54 9.40509C79.625 9.25309 79.7778 9.08423 79.9628 9.08423H82.4721C82.535 9.08144 82.5964 9.10259 82.6435 9.14344C82.6907 9.18423 82.7207 9.24151 82.7264 9.30351C82.7228 9.33944 82.7114 9.37423 82.6928 9.40509L78.9993 15.2284L82.8514 21.2877C82.8814 21.3392 82.8985 21.3971 82.9021 21.4566C82.9028 21.5547 82.8171 21.6219 82.6814 21.6219Z" fill="#F71963"/>
<path d="M47.5558 9.11926C47.4952 9.11947 47.4366 9.14047 47.3899 9.17883C47.3431 9.21712 47.3112 9.27033 47.2995 9.32947L44.8377 18.3943C44.8039 18.58 44.7532 18.6473 44.6004 18.6473C44.4476 18.6473 44.3969 18.5772 44.3631 18.3943L41.8985 9.32733C41.8868 9.26826 41.8549 9.21505 41.8081 9.17669C41.7614 9.1384 41.7028 9.11733 41.6422 9.11719H39.2192C39.1798 9.11726 39.1409 9.12612 39.1054 9.14319C39.0699 9.16026 39.0388 9.18504 39.0143 9.21576C38.9898 9.24647 38.9726 9.28226 38.9639 9.32054C38.9553 9.35876 38.9554 9.39847 38.9643 9.43669C38.9643 9.43669 41.9711 19.8326 42.0041 19.9349C42.4055 21.1735 43.3794 21.7655 44.6187 21.7655C45.7989 21.7655 46.8291 21.1455 47.2319 19.9384C47.2797 19.7983 50.2196 9.43597 50.2196 9.43597C50.2284 9.39783 50.2284 9.35819 50.2197 9.32004C50.211 9.2819 50.1938 9.24619 50.1693 9.21554C50.1448 9.1849 50.1137 9.16019 50.0783 9.14319C50.0429 9.12612 50.0041 9.11726 49.9647 9.11719L47.5558 9.11926Z" fill="#F71963"/>
<path d="M32.6269 0H6.29116C4.24908 0 2.94146 2.1599 3.89701 3.9555L6.53129 8.91843H1.75565C1.45321 8.9185 1.15593 8.99636 0.892586 9.14429C0.629242 9.29228 0.408771 9.50536 0.252524 9.763C0.0962764 10.0206 0.00954992 10.3141 0.000744624 10.6149C-0.00806065 10.9156 0.061353 11.2136 0.202263 11.4798L8.67543 27.4356C8.82486 27.7162 9.04821 27.951 9.32171 28.1148C9.59514 28.2786 9.90829 28.3651 10.2274 28.3651C10.5466 28.3651 10.8597 28.2786 11.1331 28.1148C11.4066 27.951 11.6301 27.7162 11.7794 27.4356L14.0806 23.1256L16.9677 28.5635C17.9838 30.4761 20.7364 30.4796 21.756 28.5691L34.9562 3.85531C35.8893 2.10736 34.6161 0 32.6269 0ZM20.7969 10.5592L15.1051 21.2179C15.0057 21.4045 14.857 21.5606 14.6751 21.6696C14.4931 21.7784 14.2849 21.8359 14.0725 21.8359C13.8602 21.8359 13.6519 21.7784 13.47 21.6696C13.288 21.5606 13.1394 21.4045 13.0399 21.2179L7.40307 10.6041C7.30886 10.4271 7.26214 10.2289 7.2675 10.0287C7.27286 9.82857 7.33007 9.63314 7.43364 9.46143C7.53714 9.28971 7.6835 9.1475 7.8585 9.04857C8.0335 8.94964 8.23121 8.89729 8.4325 8.89671H19.7928C19.989 8.89671 20.1819 8.94728 20.3527 9.04343C20.5236 9.13957 20.6664 9.278 20.7675 9.44536C20.8686 9.61271 20.9244 9.80328 20.9296 9.99843C20.9347 10.1936 20.889 10.3868 20.7969 10.5592Z" fill="#F71963"/>
</svg>
