<svg width="14" height="14" viewBox="0 0 14 14" fill="none" xmlns="http://www.w3.org/2000/svg">
<path d="M6.993 0C3.171 0 0.0560001 3.115 0.0560001 6.937C0.0560001 8.162 0.378 9.352 0.98 10.402L0 14L3.675 13.034C4.69 13.587 5.831 13.881 6.993 13.881C10.815 13.881 13.93 10.766 13.93 6.944C13.93 5.089 13.209 3.346 11.9 2.037C10.591 0.721 8.848 0 6.993 0ZM7 1.169C8.54 1.169 9.982 1.771 11.074 2.863C12.159 3.955 12.761 5.404 12.761 6.944C12.761 10.122 10.171 12.705 6.993 12.705C5.957 12.705 4.942 12.432 4.06 11.9L3.85 11.781L1.666 12.355L2.247 10.227L2.107 10.003C1.533 9.1 1.225 8.029 1.225 6.937C1.232 3.759 3.815 1.169 7 1.169ZM4.536 3.731C4.424 3.731 4.235 3.773 4.074 3.948C3.92 4.123 3.465 4.55 3.465 5.397C3.465 6.251 4.088 7.07 4.165 7.189C4.263 7.308 5.397 9.058 7.14 9.8C7.553 9.989 7.875 10.094 8.127 10.171C8.54 10.304 8.918 10.283 9.219 10.241C9.555 10.192 10.241 9.821 10.388 9.415C10.535 9.009 10.535 8.666 10.493 8.589C10.444 8.519 10.332 8.477 10.157 8.4C9.982 8.302 9.128 7.882 8.974 7.826C8.813 7.77 8.715 7.742 8.582 7.91C8.47 8.085 8.134 8.477 8.036 8.589C7.931 8.708 7.833 8.722 7.665 8.638C7.483 8.547 6.923 8.365 6.265 7.777C5.747 7.315 5.404 6.748 5.299 6.573C5.215 6.405 5.292 6.3 5.376 6.223C5.453 6.146 5.565 6.02 5.635 5.915C5.726 5.817 5.754 5.74 5.81 5.628C5.866 5.509 5.838 5.411 5.796 5.327C5.754 5.25 5.404 4.382 5.257 4.039C5.117 3.703 4.977 3.745 4.865 3.738C4.767 3.738 4.655 3.731 4.536 3.731Z" fill="white"/>
</svg>
